<svg xmlns="http://www.w3.org/2000/svg" xmlns:xlink="http://www.w3.org/1999/xlink" width="1080" zoomAndPan="magnify" viewBox="0 0 810 809.999993" height="1080" preserveAspectRatio="xMidYMid meet" version="1.0"><defs><clipPath id="3dc539b792"><path d="M 212 718 L 598 718 L 598 750.585938 L 212 750.585938 Z M 212 718 " clip-rule="nonzero"/></clipPath><clipPath id="0e494bb31c"><path d="M 21.71875 59.085938 L 788.21875 59.085938 L 788.21875 614 L 21.71875 614 Z M 21.71875 59.085938 " clip-rule="nonzero"/></clipPath></defs><path fill="#000000" d="M 505.101562 743.242188 C 500.238281 743.242188 496.292969 739.289062 496.292969 734.4375 L 313.617188 734.4375 C 313.617188 746.027344 295.996094 746.023438 295.996094 734.4375 L 295.996094 597.117188 C 295.996094 592.257812 299.945312 588.3125 304.804688 588.3125 L 505.097656 588.3125 C 509.960938 588.3125 513.90625 592.261719 513.90625 597.117188 L 513.90625 734.4375 C 513.90625 739.289062 509.964844 743.242188 505.097656 743.242188 Z M 505.101562 743.242188 " fill-opacity="1" fill-rule="evenodd"/><g clip-path="url(#3dc539b792)"><path fill="#000000" d="M 581.933594 750.578125 L 227.980469 750.578125 C 206.714844 750.578125 206.714844 718.292969 227.980469 718.292969 L 581.933594 718.292969 C 603.199219 718.292969 603.199219 750.578125 581.933594 750.578125 Z M 581.933594 750.578125 " fill-opacity="1" fill-rule="evenodd"/></g><g clip-path="url(#0e494bb31c)"><path fill="#000000" d="M 742.144531 613.257812 L 67.769531 613.257812 C 42.429688 613.257812 21.816406 592.652344 21.816406 567.320312 L 21.816406 105.015625 C 21.816406 79.683594 42.429688 59.078125 67.769531 59.078125 L 742.144531 59.078125 C 767.484375 59.078125 788.097656 79.683594 788.097656 105.015625 L 788.097656 567.320312 C 788.097656 592.652344 767.484375 613.257812 742.144531 613.257812 Z M 54.101562 494.726562 L 755.800781 494.726562 L 755.800781 105.015625 C 755.800781 97.492188 749.667969 91.363281 742.144531 91.363281 L 67.769531 91.363281 C 60.242188 91.363281 54.101562 97.492188 54.101562 105.015625 Z M 432.894531 559.125 L 377.003906 559.125 C 365.410156 559.125 365.410156 541.515625 377.003906 541.515625 L 432.894531 541.515625 C 444.488281 541.515625 444.488281 559.125 432.894531 559.125 Z M 432.894531 559.125 " fill-opacity="1" fill-rule="evenodd"/></g></svg>