<svg xmlns="http://www.w3.org/2000/svg" xmlns:xlink="http://www.w3.org/1999/xlink" width="1080" zoomAndPan="magnify" viewBox="0 0 810 809.999993" height="1080" preserveAspectRatio="xMidYMid meet" version="1.0"><defs><clipPath id="f2e76dcf73"><path d="M 208.179688 13 L 601.929688 13 L 601.929688 797 L 208.179688 797 Z M 208.179688 13 " clip-rule="nonzero"/></clipPath></defs><path fill="#100f0d" d="M 405.054688 701.355469 C 389.894531 701.355469 377.566406 713.679688 377.566406 728.835938 C 377.566406 743.984375 389.894531 756.300781 405.054688 756.300781 C 420.210938 756.300781 432.546875 743.984375 432.546875 728.835938 C 432.546875 713.679688 420.210938 701.355469 405.054688 701.355469 " fill-opacity="1" fill-rule="nonzero"/><g clip-path="url(#f2e76dcf73)"><path fill="#100f0d" d="M 578.664062 653.347656 C 578.664062 656.988281 575.675781 659.988281 572.015625 659.988281 L 238.089844 659.988281 C 234.441406 659.988281 231.449219 656.988281 231.449219 653.347656 L 231.449219 156.785156 C 231.449219 153.132812 234.441406 150.136719 238.089844 150.136719 L 572.015625 150.136719 C 575.675781 150.136719 578.664062 153.132812 578.664062 156.785156 Z M 405.054688 771.074219 C 381.757812 771.074219 362.792969 752.117188 362.792969 728.828125 C 362.792969 705.539062 381.757812 686.589844 405.054688 686.589844 C 428.359375 686.589844 447.316406 705.539062 447.316406 728.828125 C 447.316406 752.117188 428.359375 771.074219 405.054688 771.074219 M 358.539062 67.804688 C 358.539062 64.144531 361.535156 61.15625 365.179688 61.15625 L 444.925781 61.15625 C 448.578125 61.15625 451.574219 64.144531 451.574219 67.804688 L 451.574219 76.660156 C 451.574219 80.3125 448.578125 83.300781 444.925781 83.300781 L 365.179688 83.300781 C 361.535156 83.300781 358.539062 80.3125 358.539062 76.660156 Z M 542.117188 13.136719 L 267.996094 13.136719 C 235.101562 13.136719 208.191406 40.042969 208.191406 72.921875 L 208.191406 737.195312 C 208.191406 770.089844 235.101562 796.984375 267.996094 796.984375 L 542.117188 796.984375 C 575.015625 796.984375 601.917969 770.089844 601.917969 737.195312 L 601.917969 72.921875 C 601.917969 40.042969 575.015625 13.136719 542.117188 13.136719 " fill-opacity="1" fill-rule="nonzero"/></g></svg>